<svg width="18" height="16" viewBox="0 0 18 16" fill="none" xmlns="http://www.w3.org/2000/svg">
<g id="Group">
<g id="Group_2">
<g id="Group_3">
<path id="Subtract" fill-rule="evenodd" clip-rule="evenodd" d="M7.27116 15.3043C6.70442 15.4681 6.09115 15.5508 5.44767 15.5508C4.73108 15.5508 4.04229 15.4687 3.40002 15.3061C2.15717 14.9926 1.23877 14.398 0.809789 13.6319C0.624902 13.3008 0.53125 12.9479 0.53125 12.5824C0.53125 12.206 0.621276 11.8241 0.798913 11.4459C1.47985 9.99457 3.27495 9.01817 5.26339 9.01817H5.32018C5.15886 8.73359 5.08092 8.43874 5.08092 8.12878C5.08092 7.97471 5.10146 7.81762 5.14254 7.6575C3.05683 7.61038 1.49617 6.08294 1.49617 4.06913C1.49617 2.64743 2.63268 1.26199 4.25799 0.702497C4.74437 0.534528 5.24043 0.44873 5.72802 0.44873H10.1883C10.3399 0.44873 10.4747 0.547216 10.5218 0.691621C10.5689 0.835422 10.5169 0.993724 10.3943 1.08254L9.39675 1.80457C9.33694 1.84686 9.26504 1.86982 9.19072 1.86982H8.83363C9.29464 2.42267 9.56472 3.21116 9.56472 4.09632C9.56472 5.07332 9.07048 5.99715 8.17082 6.70105C7.47598 7.24241 7.4488 7.39165 7.4488 7.7004C7.45725 7.87018 7.94122 8.42424 8.47534 8.80187C9.7194 9.68159 10.1822 10.545 10.1822 11.9854C10.1816 13.4905 9.03906 14.7908 7.27116 15.3043ZM17.3439 7.65388C17.3439 7.84722 17.1862 8.00432 16.9934 8.00432H14.4588V10.5402C14.4588 10.7335 14.3011 10.8906 14.1096 10.8906H13.3875C13.193 10.8906 13.0359 10.7335 13.0359 10.5402V8.00432H10.5031C10.3097 8.00432 10.1526 7.84843 10.1526 7.65388V6.93306C10.1526 6.73972 10.3097 6.58141 10.5031 6.58141H13.0359V4.04798C13.0359 3.85403 13.193 3.69754 13.3875 3.69754H14.1096C14.3011 3.69754 14.4588 3.85403 14.4588 4.04798V6.58141H16.9928C17.1856 6.58141 17.3433 6.73851 17.3433 6.93185L17.3439 7.65388ZM6.81828 10.3684L6.81826 10.3684C6.77604 10.3393 6.73315 10.3099 6.68942 10.2803C6.3855 10.1873 6.06286 10.1389 5.73236 10.1347H5.69248C4.17351 10.1347 2.84184 11.0537 2.84184 12.1026C2.84184 13.2445 3.98318 14.1369 5.43932 14.1369C7.36009 14.1369 8.33346 13.4735 8.33346 12.1684C8.33346 12.0452 8.31896 11.9171 8.28815 11.7884C8.15874 11.284 7.69717 10.9685 6.999 10.4913L6.99092 10.4857C6.93435 10.4481 6.87696 10.4087 6.81828 10.3684ZM5.91518 6.50529H5.91397H5.90008C4.93516 6.47508 3.97085 5.33494 3.79805 4.01536C3.70198 3.27762 3.85726 2.6142 4.22401 2.19549C4.46026 1.92481 4.77142 1.78101 5.12005 1.78101L5.15932 1.78221C6.14478 1.81061 7.08915 2.91026 7.26135 4.23106C7.35923 4.97 7.19428 5.66605 6.82209 6.0902C6.58464 6.36209 6.27831 6.50529 5.91518 6.50529Z" fill="#222222"/>
</g>
</g>
</g>
</svg>
