<svg width="18" height="19" viewBox="0 0 18 19" fill="none" xmlns="http://www.w3.org/2000/svg">
<g id="Group">
<g id="Group_2">
<g id="Group_3">
<path id="Vector" d="M4.25 18.2658H0.5V5.14073H4.25V18.2658ZM2.49123 4.33638C1.51998 4.33638 0.734379 3.54887 0.734379 2.57761C0.734379 1.60636 1.52189 0.818848 2.49123 0.818848C3.46249 0.820698 4.25 1.60821 4.25 2.57761C4.25 3.54887 3.46249 4.33638 2.49123 4.33638ZM17.375 18.2658H13.625V10.1508C13.625 9.20011 13.3531 8.53454 12.185 8.53454C10.2481 8.53454 9.87497 10.1508 9.87497 10.1508V18.2658H6.12497V5.14073H9.87497V6.39509C10.4112 5.9845 11.7499 5.14258 13.625 5.14258C14.84 5.14258 17.375 5.87008 17.375 10.2651V18.2658Z" fill="#222222"/>
</g>
</g>
</g>
</svg>
