<svg width="18" height="18" viewBox="0 0 18 18" fill="none" xmlns="http://www.w3.org/2000/svg">
<g id="Group">
<path id="Vector" d="M12.3823 8.76885C12.0217 8.5276 11.5795 8.31979 11.0683 8.15135C10.5633 7.9851 9.99234 7.83135 9.37078 7.69447C8.87953 7.57729 8.52141 7.48697 8.30828 7.42666C8.09984 7.36697 7.89203 7.28447 7.69016 7.17947C7.49547 7.07947 7.34141 6.95916 7.23234 6.82197C7.12922 6.69229 7.07922 6.54197 7.07922 6.36197C7.07922 6.06853 7.23484 5.82072 7.55516 5.60447C7.88734 5.3801 8.33516 5.26666 8.88547 5.26666C9.47828 5.26666 9.90953 5.36916 10.1677 5.57135C10.4333 5.77916 10.6652 6.07385 10.8567 6.44885C11.0217 6.74197 11.1711 6.94572 11.3148 7.07635C11.4695 7.21666 11.6923 7.28885 11.9767 7.28885C12.2892 7.28885 12.5548 7.17478 12.7652 6.94978C12.9742 6.72603 13.0802 6.46978 13.0802 6.18728C13.0802 5.89416 12.9992 5.59041 12.8402 5.28572C12.682 4.98447 12.4311 4.69385 12.0933 4.4226C11.7583 4.15291 11.3314 3.93385 10.8252 3.77166C10.322 3.61072 9.71859 3.52916 9.03328 3.52916C8.17547 3.52916 7.41734 3.65229 6.77984 3.89447C6.13422 4.1401 5.63297 4.49854 5.28953 4.95916C4.94328 5.42322 4.76797 5.96135 4.76797 6.55822C4.76797 7.18416 4.93516 7.71728 5.26484 8.14103C5.58984 8.55947 6.03359 8.89385 6.58422 9.13478C7.12266 9.3701 7.79953 9.57885 8.59672 9.75447C9.18266 9.88041 9.65672 10.001 10.0058 10.1132C10.3398 10.2207 10.6161 10.377 10.8252 10.5779C11.0245 10.7704 11.1217 11.0151 11.1217 11.3273C11.1217 11.722 10.9355 12.0442 10.5533 12.3129C10.1617 12.5879 9.64141 12.7276 9.00672 12.7276C8.54484 12.7276 8.16984 12.6585 7.89141 12.5232C7.61484 12.3882 7.39797 12.2163 7.24734 12.011C7.09078 11.7973 6.94203 11.527 6.80609 11.206C6.68422 10.912 6.53297 10.6835 6.35609 10.5295C6.17109 10.3685 5.94328 10.2873 5.67984 10.2873C5.35828 10.2873 5.08859 10.3904 4.87828 10.5938C4.66578 10.7995 4.55797 11.0504 4.55797 11.3398C4.55797 11.8029 4.72328 12.2835 5.04953 12.7673C5.37266 13.2467 5.79797 13.6351 6.31391 13.9217C7.03578 14.3157 7.96047 14.5151 9.06328 14.5151C9.98172 14.5151 10.7892 14.3688 11.463 14.081C12.143 13.7901 12.6677 13.3804 13.023 12.8635C13.3795 12.3438 13.5605 11.7507 13.5605 11.1001C13.5605 10.5557 13.4555 10.0876 13.248 9.70854C13.0414 9.33166 12.7502 9.0151 12.3823 8.76885ZM12.5958 17.4001C11.8339 17.4001 11.1173 17.2026 10.4908 16.8563C10.0352 16.9432 9.56516 16.9892 9.08453 16.9892C4.84391 16.9892 1.40578 13.4517 1.40578 9.08822C1.40578 8.54385 1.45953 8.0126 1.56141 7.49947C1.17297 6.81916 0.949219 6.0276 0.949219 5.18197C0.949219 2.65166 2.94297 0.600098 5.40234 0.600098C6.27359 0.600098 7.08516 0.858223 7.77172 1.30322C8.19859 1.2276 8.63734 1.1876 9.08453 1.1876C13.3258 1.1876 16.7636 4.7251 16.7636 9.08822C16.7636 9.6701 16.7017 10.2373 16.5861 10.7835C16.882 11.3967 17.0489 12.0876 17.0489 12.8188C17.0486 15.3482 15.0552 17.4001 12.5958 17.4001Z" fill="#222222"/>
</g>
</svg>
