<svg width="18" height="20" viewBox="0 0 18 20" fill="none" xmlns="http://www.w3.org/2000/svg">
<g id="Group">
<g id="Group_2">
<path id="Subtract" fill-rule="evenodd" clip-rule="evenodd" d="M11.6885 2.016H10.6692V6.47656C10.6692 6.87461 10.7033 7.14438 10.7598 7.31533C10.8623 7.60075 11.0894 7.73426 11.4184 7.73426C11.7913 7.73426 12.1792 7.50807 12.5862 7.04157V7.65661H13.6082V2.016H12.5862V6.3274C12.3594 6.6475 12.1448 6.80587 11.9404 6.80587C11.8036 6.80587 11.7231 6.72484 11.7007 6.56648C11.6885 6.53303 11.6885 6.40873 11.6885 6.16904V2.016ZM7.12877 2.52638C6.91148 2.81149 6.80898 3.25221 6.80898 3.85528V5.83052C6.80898 6.42991 6.91148 6.87492 7.12877 7.15697C7.41143 7.54183 7.80949 7.73426 8.31895 7.73426C8.83087 7.73426 9.22862 7.54183 9.51128 7.15697C9.7255 6.87492 9.82801 6.43022 9.82801 5.83052V3.85528C9.82801 3.25221 9.7255 2.81119 9.51128 2.52638C9.22862 2.1406 8.83087 1.94786 8.31895 1.94786C7.80949 1.94786 7.41143 2.1406 7.12877 2.52638ZM4.88038 3.05978L4.07568 0.0874023H2.88335C3.00136 0.434313 3.12185 0.781898 3.24237 1.12956L3.24237 1.12959L3.24238 1.1296L3.2424 1.12966C3.36571 1.48538 3.48905 1.84119 3.6098 2.19646C3.97348 3.25221 4.20028 4.04802 4.30309 4.59124V7.65692H5.43619V4.59124L6.79977 0.0874023H5.65348L4.88038 3.05978ZM15.267 19.6812C16.1432 19.5833 16.8709 18.9265 17.0759 18.0368C17.3677 16.7696 17.369 15.3857 17.369 14.0808V14.0563C17.369 12.7585 17.369 11.3843 17.0799 10.1247C16.8746 9.23472 16.1466 8.57825 15.2704 8.48034C13.1951 8.24863 11.0946 8.2474 9.00366 8.24863C6.9121 8.2474 4.81164 8.24863 2.73634 8.48034C1.86013 8.57794 1.13276 9.23472 0.928056 10.1247C0.636496 11.3923 0.632812 12.7758 0.632812 14.0808C0.632812 15.3857 0.632812 16.7696 0.92468 18.0368C1.12908 18.9268 1.85706 19.5833 2.73327 19.6812C4.80826 19.9129 6.90903 19.9141 8.99997 19.9129C11.0918 19.9141 13.1914 19.9129 15.267 19.6812ZM13.4043 12.4661C13.6964 12.084 14.0982 11.894 14.6156 11.894C15.1232 11.894 15.5256 12.0843 15.8083 12.4655C16.0203 12.7479 16.1213 13.1843 16.1213 13.7806V14.9367H14.0982V15.9268C14.0982 16.443 14.2682 16.7008 14.6156 16.7008C14.8645 16.7008 15.01 16.5658 15.0677 16.2954C15.0766 16.2404 15.0898 16.0155 15.0898 15.6104H16.1213V15.7574C16.1213 16.0836 16.1093 16.308 16.0998 16.4092C16.0661 16.6333 15.9863 16.8361 15.8635 17.0154C15.5836 17.4208 15.169 17.6206 14.6408 17.6206C14.1117 17.6206 13.7087 17.43 13.4169 17.0488C13.2014 16.7692 13.0918 16.3297 13.0918 15.7365V13.7812C13.0918 13.1849 13.1897 12.7485 13.4043 12.4661ZM14.0988 14.0952H15.1104V13.5786C15.1104 13.0627 14.9409 12.8043 14.6064 12.8043C14.2685 12.8043 14.0988 13.0624 14.0988 13.5786V14.0952ZM7.45094 16.2278C7.22659 16.5449 7.01452 16.7011 6.81135 16.7011C6.67631 16.7011 6.59927 16.6216 6.57472 16.4645C6.56552 16.4319 6.56551 16.3086 6.56551 16.0716V11.9622H5.55396V16.3752C5.55396 16.7695 5.58802 17.0359 5.64326 17.2053C5.74485 17.4883 5.9695 17.6209 6.29482 17.6209C6.6671 17.6209 7.04889 17.3962 7.45094 16.9353V17.5442H8.46311V11.9622H7.45094V16.2278ZM10.3491 12.4994C10.6753 12.0973 11.0225 11.8942 11.3944 11.8942C11.7965 11.8942 12.0678 12.1059 12.2025 12.5246C12.2703 12.7489 12.305 13.1178 12.305 13.6463V15.8689C12.305 16.3854 12.2703 16.7571 12.2025 16.9937C12.0675 17.4093 11.7968 17.621 11.3944 17.621C11.0344 17.621 10.6876 17.4209 10.3491 17.0032V17.544H9.33785V10.0527H10.3491V12.4994ZM10.853 16.7012C11.1452 16.7012 11.2931 16.4526 11.2931 15.9481V13.5659C11.2931 13.0626 11.1449 12.8041 10.853 12.8041C10.687 12.8041 10.5179 12.8833 10.3488 13.0506V16.4523C10.5179 16.6217 10.687 16.7012 10.853 16.7012ZM1.88086 11.107H3.07012V17.5437H4.19523V11.107H5.40658V10.0527H1.88086V11.107ZM8.8066 6.02268C8.8066 6.54442 8.64855 6.8056 8.31924 6.8056C7.98962 6.8056 7.83126 6.54473 7.83126 6.02268V3.65C7.83126 3.12826 7.98962 2.868 8.31924 2.868C8.64855 2.868 8.8066 3.12795 8.8066 3.65V6.02268Z" fill="#222222"/>
</g>
</g>
</svg>
